<svg width="134" height="134" viewBox="0 0 134 134" fill="none" xmlns="http://www.w3.org/2000/svg">
<rect width="134" height="134" />
<circle cx="67" cy="67" r="66" fill="#F7866F" stroke="#E05D5A" stroke-width="2"/>
<line x1="4.99999" y1="46" x2="130" y2="45.9987" stroke="#E05D5A" stroke-width="2"/>
<g filter="url(#filter0_d)">
<path d="M64.632 94.496V94.88C64.632 95.904 64.312 96.608 63.672 96.992C63.032 97.344 62.264 97.52 61.368 97.52C60.952 97.52 60.632 97.504 60.408 97.472C60.184 97.408 59.992 97.264 59.832 97.04C59.672 96.816 59.512 96.464 59.352 95.984C59.224 95.504 59.048 94.832 58.824 93.968C58.6 93.04 58.36 92.272 58.104 91.664C57.848 91.056 57.528 90.576 57.144 90.224C56.792 89.84 56.328 89.568 55.752 89.408C55.208 89.248 54.488 89.168 53.592 89.168C51.896 89.168 50.584 89.232 49.656 89.36C48.728 89.488 48.024 89.728 47.544 90.08C47.064 90.4 46.712 90.864 46.488 91.472C46.264 92.048 46.008 92.8 45.72 93.728C45.496 94.4 45.336 95.072 45.24 95.744C45.176 96.384 45.048 96.848 44.856 97.136C44.696 97.392 44.248 97.52 43.512 97.52C42.776 97.52 42.184 97.216 41.736 96.608C41.32 96 41.112 95.328 41.112 94.592C41.112 93.824 41.368 93.088 41.88 92.384C42.136 92.032 42.344 91.696 42.504 91.376C42.696 91.024 42.856 90.704 42.984 90.416C43.112 90.128 43.416 89.264 43.896 87.824C44.376 86.352 45.08 84.304 46.008 81.68C46.904 79.056 47.64 76.944 48.216 75.344C48.824 73.712 49.288 72.56 49.608 71.888C50.216 70.608 50.744 69.792 51.192 69.44C51.64 69.088 52.2 68.912 52.872 68.912C53.544 68.912 54.152 69.152 54.696 69.632C55.272 70.112 55.88 71.04 56.52 72.416C56.52 72.416 58.664 78.464 62.952 90.56C63.176 91.2 63.512 91.888 63.96 92.624C64.408 93.36 64.632 93.984 64.632 94.496ZM53.16 86.24C55.272 86.24 56.328 86.048 56.328 85.664V85.52C56.328 85.456 56.296 85.328 56.232 85.136C56.2 84.944 56.152 84.672 56.088 84.32L55.752 83.12C55.752 83.088 55.72 82.976 55.656 82.784C55.624 82.72 55.432 81.888 55.08 80.288C54.696 78.752 54.216 77.296 53.64 75.92C53.064 74.576 52.728 73.904 52.632 73.904C52.536 73.904 52.296 74.4 51.912 75.392C49.608 81.152 48.456 84.56 48.456 85.616V85.76C48.456 86.08 49.16 86.24 50.568 86.24H53.16ZM70.9751 76.736V76.256C70.9431 76.096 70.9271 75.888 70.9271 75.632C70.9271 75.376 70.9271 75.056 70.9271 74.672C70.9271 73.84 70.7511 73.024 70.3991 72.224C70.0471 71.328 69.8711 70.848 69.8711 70.784V70.448C69.8711 69.904 70.3031 69.568 71.1671 69.44C72.8951 69.152 75.1511 69.008 77.9351 69.008H79.4231C83.7751 69.008 87.1191 70.24 89.4551 72.704C91.8231 75.136 93.0071 78.512 93.0071 82.832L92.9591 83.36C92.9591 84.512 92.8471 85.776 92.6231 87.152C92.4311 88.496 92.0151 89.808 91.3751 91.088C90.7351 92.368 89.8231 93.552 88.6391 94.64C87.4871 95.728 85.9671 96.592 84.0791 97.232C82.5431 97.744 80.5111 98 77.9831 98H77.0231C75.7751 98 74.6711 97.984 73.7111 97.952C72.7511 97.888 71.9191 97.792 71.2151 97.664C70.3831 97.504 69.9671 97.168 69.9671 96.656C69.9671 96.304 70.1271 95.792 70.4471 95.12C70.7671 94.352 70.9431 93.568 70.9751 92.768C71.0391 92.352 71.0711 91.44 71.0711 90.032C71.0711 88.624 71.0711 86.72 71.0711 84.32V80.48L70.9751 76.736ZM87.9191 84.08V82.64C87.9191 81.296 87.7591 79.984 87.4391 78.704C87.1191 77.392 86.6071 76.24 85.9031 75.248C85.1991 74.224 84.2871 73.408 83.1671 72.8C82.0791 72.16 80.7671 71.84 79.2311 71.84H78.3191C76.6231 71.84 75.6791 72.192 75.4871 72.896C75.3911 73.28 75.3431 75.264 75.3431 78.848V86.048L75.2951 87.344V90.56L75.3431 90.896V91.808L75.3911 93.104C75.3911 93.776 75.5991 94.256 76.0151 94.544C76.4631 94.832 77.3591 94.976 78.7031 94.976L78.9911 94.928C80.5911 94.928 81.9511 94.64 83.0711 94.064C84.2231 93.456 85.1511 92.656 85.8551 91.664C86.5911 90.64 87.1191 89.472 87.4391 88.16C87.7591 86.848 87.9191 85.488 87.9191 84.08Z" fill="white"/>
</g>
<defs>
<filter id="filter0_d" x="37.112" y="68.912" width="59.8951" height="37.088" filterUnits="userSpaceOnUse" color-interpolation-filters="sRGB">
<feFlood flood-opacity="0" result="BackgroundImageFix"/>
<feColorMatrix in="SourceAlpha" type="matrix" values="0 0 0 0 0 0 0 0 0 0 0 0 0 0 0 0 0 0 127 0"/>
<feOffset dy="4"/>
<feGaussianBlur stdDeviation="2"/>
<feColorMatrix type="matrix" values="0 0 0 0 0 0 0 0 0 0 0 0 0 0 0 0 0 0 0.25 0"/>
<feBlend mode="normal" in2="BackgroundImageFix" result="effect1_dropShadow"/>
<feBlend mode="normal" in="SourceGraphic" in2="effect1_dropShadow" result="shape"/>
</filter>
</defs>
</svg>
